<?xml version="1.0" encoding="utf-8"?>
<!-- Generator: Adobe Illustrator 23.0.3, SVG Export Plug-In . SVG Version: 6.00 Build 0)  -->
<svg version="1.1" id="Calque_1" xmlns="http://www.w3.org/2000/svg" xmlns:xlink="http://www.w3.org/1999/xlink" x="0px" y="0px"
	 viewBox="0 0 216 40" style="enable-background:new 0 0 216 40;" xml:space="preserve">
<style type="text/css">
	.st0{fill:#006D4C;}
	.st1{fill:#009898;}
	.st2{fill:#E40230;}
</style>
<g>
	<polygon class="st0" points="29.1,28.4 29.1,30.7 3,30.7 3,28.4 29.1,28.4 	"/>
	<path class="st0" d="M19.6,15.7l1.8,4.4l3.1-1.6l-2.7-6h-3.9l-5.5,10.3c0,0,2.7-0.1,4.4-1.4C17.2,21.1,18.5,17.8,19.6,15.7
		L19.6,15.7L19.6,15.7L19.6,15.7z"/>
	<path class="st1" d="M24.5,18.4l-3.1,1.6c-2.7,1.4-5.2,2.6-6.6,2.9c-3.6,1-8,1.7-9.5,0.3c-1.5-1.3,1.9-6.8,8.4-8
		c1-0.2,1.7-0.2,1.7-0.2c0,0-0.4-1.9-0.8-2.3c-0.5-0.6-1-0.7-1.7-0.6c-1.4,0.1-7.3,1.7-9.7,6.6c-1.3,2.8,0.4,5.7,1.6,6.5
		c0.5,0.4,3.9,3.4,11.7,0.3C24.1,22.7,31,18,31,18v-3.1C31,14.8,28,16.5,24.5,18.4L24.5,18.4z"/>
	<path class="st0" d="M22.5,22.9c0.3,0.7,1.1,2.6,1.3,3.2c0.3,0.6,1,0.6,1,0.6h3.6l-2.7-5.5C24.7,21.8,23.6,22.4,22.5,22.9
		L22.5,22.9z"/>
	<path class="st2" d="M31,13.6c0,0-4.1,2.4-5.1,2.7c-0.9,0.3-1.2-0.1-1.3-0.3c-0.2-0.4-0.6-1.6-0.7-1.7c0,0,0.3,0,0.8-0.1
		c0.6-0.2,6.3-3.3,6.3-3.3V13.6L31,13.6L31,13.6z"/>
	<path class="st0" d="M43.5,12.3c1.4,0,2.8,0.4,3.9,1.3l-0.9,1.2c-0.9-0.7-1.7-1-2.9-1c-2.1,0-3.7,1.3-3.7,3.2s1.6,3.2,3.7,3.2
		c1.3,0,2.1-0.4,3.1-1.1l0.9,1.2c-1.2,0.8-2.7,1.3-4.1,1.3c-2.9,0-5.6-1.7-5.6-4.6C37.9,14,40.6,12.3,43.5,12.3L43.5,12.3z"/>
	<path class="st0" d="M54.2,16.9c1.3,0,2.2-0.6,2.2-1.5c0-0.9-0.8-1.5-2.2-1.5h-2.7v3H54.2L54.2,16.9z M49.5,12.5h4.8
		c2.2,0,4,0.9,4,2.8c0,1.5-1.1,2.3-2.6,2.7l2.9,3.4h-2.2l-2.6-3.1h-2.4v3.1h-1.9V12.5L49.5,12.5z"/>
	<path class="st0" d="M66.5,9.9l-1.5,1.6h-1.6l1.1-1.6H66.5L66.5,9.9z M60.4,18.8v-6.3h8v1.4h-6.1V16h5.6v1.4h-5.6v1.4
		c0,0.8,0.4,1.1,1.1,1.1h5.2v1.4H63C61.4,21.3,60.4,20.4,60.4,18.8L60.4,18.8z"/>
	<path class="st0" d="M75,19.9c2.1,0,3.6-1.2,3.6-3c0-1.8-1.4-3-3.6-3h-2.2v6H75L75,19.9z M70.9,12.5h4c3.4,0,5.7,1.8,5.7,4.4
		c0,2.7-2.3,4.4-5.7,4.4h-4V12.5L70.9,12.5z"/>
	<polygon class="st0" points="82.6,12.5 84.5,12.5 84.5,21.3 82.6,21.3 82.6,12.5 	"/>
	<polygon class="st0" points="86.3,13.9 86.3,12.5 95,12.5 95,13.9 91.6,13.9 91.6,21.3 89.7,21.3 89.7,13.9 86.3,13.9 	"/>
	<path class="st0" d="M107,17.8l-1.7-3.5l-1.7,3.5H107L107,17.8z M107.7,19.2h-4.9l-1.1,2.1h-1.9l4.6-8.8h1.9l4.6,8.8h-2.2
		L107.7,19.2L107.7,19.2z"/>
	<path class="st0" d="M117.1,12.3c1.4,0,2.8,0.4,3.9,1.3l-0.9,1.2c-0.9-0.7-1.7-1-2.9-1c-2.1,0-3.7,1.3-3.7,3.2
		c0,1.9,1.5,3.2,3.7,3.2c1,0,1.9-0.3,2.5-0.7v-1.7h-2.7v-1.4h4.6v3.7c-1.1,0.8-2.6,1.4-4.5,1.4c-3.3,0-5.5-2-5.5-4.6
		C111.5,14,114.2,12.3,117.1,12.3L117.1,12.3z"/>
	<path class="st0" d="M128.6,16.9c1.3,0,2.2-0.6,2.2-1.5c0-0.9-0.8-1.5-2.2-1.5h-2.7v3H128.6L128.6,16.9z M123.9,12.5h4.8
		c2.2,0,4,0.9,4,2.8c0,1.5-1.1,2.3-2.6,2.7l2.9,3.4h-2.2l-2.6-3.1h-2.4v3.1h-1.9V12.5L123.9,12.5z"/>
	<polygon class="st0" points="135.1,12.5 137,12.5 137,21.3 135.1,21.3 135.1,12.5 	"/>
	<path class="st0" d="M144.7,12.3c1.4,0,2.8,0.4,3.9,1.3l-0.9,1.2c-0.9-0.7-1.7-1-2.9-1c-2.1,0-3.7,1.3-3.7,3.2s1.6,3.2,3.7,3.2
		c1.3,0,2.1-0.4,3.1-1.1l0.9,1.2c-1.2,0.8-2.7,1.3-4.1,1.3c-2.9,0-5.6-1.7-5.6-4.6C139.2,14,141.9,12.3,144.7,12.3L144.7,12.3z"/>
	<path class="st0" d="M151.8,16.9c0,1.8,1.5,3.2,3.6,3.2c2.1,0,3.6-1.4,3.6-3.2c0-1.8-1.5-3.2-3.6-3.2
		C153.2,13.7,151.8,15.1,151.8,16.9L151.8,16.9z M149.8,16.9c0-2.5,2.3-4.6,5.6-4.6c3.3,0,5.6,2.1,5.6,4.6c0,2.5-2.3,4.6-5.6,4.6
		C152.1,21.5,149.8,19.4,149.8,16.9L149.8,16.9z"/>
	<polygon class="st0" points="163,12.5 164.9,12.5 164.9,19.9 170.5,19.9 170.5,21.3 163,21.3 163,12.5 	"/>
	<path class="st0" d="M172,18.8v-6.3h8v1.4h-6.1V16h5.6v1.4h-5.6v1.4c0,0.8,0.4,1.1,1.1,1.1h5.2v1.4h-5.6
		C172.9,21.3,172,20.4,172,18.8L172,18.8z"/>
	<path class="st0" d="M41.9,29.6c1.6,0,2.6-0.9,2.6-2.3c0-1.4-1.1-2.3-2.6-2.3h-1.6v4.5H41.9L41.9,29.6z M38.9,24h2.9
		c2.5,0,4.2,1.3,4.2,3.3c0,2-1.7,3.3-4.2,3.3h-2.9V24L38.9,24z"/>
	<path class="st0" d="M47.2,28.8V24h5.9v1.1h-4.5v1.6h4.1v1h-4.1v1c0,0.6,0.3,0.9,0.8,0.9h3.8v1.1h-4.2C47.9,30.7,47.2,30,47.2,28.8
		L47.2,28.8z"/>
	<polygon class="st0" points="57.4,24 58.8,24 58.8,29.6 61.9,29.6 61.9,30.7 57.4,30.7 57.4,24 	"/>
	<path class="st0" d="M67.5,28.1l-1.3-2.6l-1.3,2.6H67.5L67.5,28.1z M68,29.1h-3.6l-0.8,1.6h-1.4l3.4-6.7H67l3.4,6.7h-1.6L68,29.1
		L68,29.1z"/>
	<polygon class="st0" points="72.3,25.1 72.3,24 78.8,24 78.8,25.1 76.2,25.1 76.2,30.7 74.9,30.7 74.9,25.1 72.3,25.1 	"/>
	<path class="st0" d="M80.4,27.4c0,1.3,1.1,2.4,2.7,2.4c1.6,0,2.7-1.1,2.7-2.4c0-1.3-1.1-2.4-2.7-2.4C81.5,25,80.4,26,80.4,27.4
		L80.4,27.4z M79,27.4c0-1.9,1.7-3.4,4.1-3.4c2.4,0,4.1,1.6,4.1,3.4c0,1.9-1.7,3.4-4.1,3.4C80.7,30.8,79,29.3,79,27.4L79,27.4z"/>
	<path class="st0" d="M88.5,27.7V24h1.4v3.7c0,1.2,0.8,2,2,2c1.2,0,2-0.8,2-2V24h1.4v3.7c0,1.9-1.4,3.1-3.4,3.1
		C89.9,30.8,88.5,29.6,88.5,27.7L88.5,27.7z"/>
	<path class="st0" d="M100.4,27.3c1,0,1.6-0.4,1.6-1.1c0-0.7-0.6-1.1-1.6-1.1h-2v2.2H100.4L100.4,27.3z M97,24h3.5
		c1.6,0,3,0.7,3,2.1c0,1.1-0.8,1.7-1.9,2l2.1,2.5h-1.6l-1.9-2.3h-1.7v2.3H97V24L97,24z"/>
	<path class="st0" d="M109.5,28.1l-1.3-2.6l-1.3,2.6H109.5L109.5,28.1z M110.1,29.1h-3.6l-0.8,1.6h-1.4l3.4-6.7h1.4l3.4,6.7h-1.6
		L110.1,29.1L110.1,29.1z"/>
	<polygon class="st0" points="113.4,24 114.8,24 114.8,30.7 113.4,30.7 113.4,24 	"/>
	<polygon class="st0" points="118.2,26 118.2,30.7 116.8,30.7 116.8,24 118.2,24 122.2,28.8 122.2,24 123.6,24 123.6,30.7 
		122.2,30.7 118.2,26 	"/>
	<path class="st0" d="M125.4,28.8V24h5.9v1.1h-4.5v1.6h4.1v1h-4.1v1c0,0.6,0.3,0.9,0.8,0.9h3.8v1.1h-4.2
		C126.1,30.7,125.4,30,125.4,28.8L125.4,28.8z"/>
	<path class="st0" d="M135.4,28.8V24h5.9v1.1h-4.5v1.6h4.1v1h-4.1v1c0,0.6,0.3,0.9,0.8,0.9h3.8v1.1h-4.2
		C136.1,30.7,135.4,30,135.4,28.8L135.4,28.8z"/>
	<polygon class="st0" points="142.5,25.1 142.5,24 148.9,24 148.9,25.1 146.4,25.1 146.4,30.7 145,30.7 145,25.1 142.5,25.1 	"/>
	<path class="st0" d="M155.4,29.6c1.6,0,2.6-0.9,2.6-2.3c0-1.4-1.1-2.3-2.6-2.3h-1.6v4.5H155.4L155.4,29.6z M152.4,24h2.9
		c2.5,0,4.2,1.3,4.2,3.3c0,2-1.7,3.3-4.2,3.3h-2.9V24L152.4,24z"/>
	<path class="st0" d="M160.8,27.7V24h1.4v3.7c0,1.2,0.8,2,2,2c1.2,0,2-0.8,2-2V24h1.4v3.7c0,1.9-1.4,3.1-3.4,3.1
		C162.1,30.8,160.8,29.6,160.8,27.7L160.8,27.7z"/>
	<path class="st0" d="M175.4,27.6c1,0,1.6-0.5,1.6-1.3c0-0.8-0.6-1.2-1.6-1.2h-2.1v2.5H175.4L175.4,27.6z M171.9,24h3.6
		c1.7,0,3,0.7,3,2.3c0,1.6-1.4,2.3-3,2.3h-2.2v2h-1.4V24L171.9,24z"/>
	<path class="st0" d="M180.6,27.4c0,1.3,1.1,2.4,2.7,2.4c1.6,0,2.7-1.1,2.7-2.4c0-1.3-1.1-2.4-2.7-2.4C181.7,25,180.6,26,180.6,27.4
		L180.6,27.4z M179.1,27.4c0-1.9,1.7-3.4,4.1-3.4c2.4,0,4.1,1.6,4.1,3.4c0,1.9-1.7,3.4-4.1,3.4C180.8,30.8,179.1,29.3,179.1,27.4
		L179.1,27.4z"/>
	<polygon class="st0" points="188.7,24 190.1,24 190.1,30.7 188.7,30.7 188.7,24 	"/>
	<polygon class="st0" points="191.2,25.1 191.2,24 197.6,24 197.6,25.1 195.1,25.1 195.1,30.7 193.7,30.7 193.7,25.1 191.2,25.1 	
		"/>
	<path class="st0" d="M199.5,27.4c0,1.3,1.1,2.4,2.7,2.4c1.6,0,2.7-1.1,2.7-2.4c0-1.3-1.1-2.4-2.7-2.4C200.6,25,199.5,26,199.5,27.4
		L199.5,27.4z M198,27.4c0-1.9,1.7-3.4,4.1-3.4c2.4,0,4.1,1.6,4.1,3.4c0,1.9-1.7,3.4-4.1,3.4C199.7,30.8,198,29.3,198,27.4L198,27.4
		z"/>
	<path class="st0" d="M207.5,27.7V24h1.4v3.7c0,1.2,0.8,2,2,2c1.2,0,2-0.8,2-2V24h1.4v3.7c0,1.9-1.4,3.1-3.4,3.1
		C208.9,30.8,207.5,29.6,207.5,27.7L207.5,27.7z"/>
</g>
</svg>
