<?xml version="1.0" encoding="utf-8"?>
<!-- Generator: Adobe Illustrator 20.0.0, SVG Export Plug-In . SVG Version: 6.00 Build 0)  -->
<svg version="1.1" id="Calque_1" xmlns="http://www.w3.org/2000/svg" xmlns:xlink="http://www.w3.org/1999/xlink" x="0px" y="0px"
	 viewBox="0 0 160.1 217.8" style="enable-background:new 0 0 160.1 217.8;" xml:space="preserve">
<style type="text/css">
	.st0{fill:#FFFFFF;}
</style>
<g>
	<g>
		<g>
			<path class="st0" d="M39.5,2.1h4.3l4.6,17h-4.1L43.5,16h-3.9l-0.7,3.1h-4L39.5,2.1z M42.8,12.8l-1.2-5.2l-1.2,5.2H42.8z"/>
			<path class="st0" d="M48.3,11v-0.7c0-5.2,3-8.4,7.1-8.4c1.8,0,3.2,0.5,4.6,1.6l-2,3.3c-0.5-0.6-1.3-1.2-2.5-1.2
				c-1.8,0-3.2,1.7-3.2,4.8v0.4c0,3.5,1.4,4.9,3,4.9c0.5,0,0.9-0.1,1.1-0.3v-3h-2V9.2h5.7v8.6c-1.4,0.9-3,1.5-4.9,1.5
				C51.3,19.4,48.3,16.5,48.3,11z"/>
			<path class="st0" d="M62,2.2h4v16.9h-4V2.2z"/>
			<path class="st0" d="M67.9,2.2H73c2,0,3.6,0.5,4.6,1.6c0.9,0.9,1.4,2.2,1.4,4V8c0,2.4-1,3.9-2.5,4.7l2.9,6.4h-4.4l-2.3-5.4h-0.9
				v5.4h-4V2.2z M72.9,10.5c1.4,0,2.1-0.9,2.1-2.4V8c0-1.6-0.8-2.3-2.2-2.3h-1v4.8H72.9z"/>
			<path class="st0" d="M84.5,11v-0.6c0-5.5,3-8.4,6.6-8.4c1.8,0,3.2,0.6,4.3,1.7l-2.1,3.2c-0.5-0.5-1.2-1.1-2.1-1.1
				c-1.5,0-2.7,1.5-2.7,4.8v0.1c0,3.5,1.4,4.8,2.7,4.8c1,0,1.7-0.6,2.3-1.2l2,3.1c-1.2,1.1-2.6,1.9-4.6,1.9
				C87.2,19.4,84.5,16.5,84.5,11z"/>
			<path class="st0" d="M96.6,2.2h4v6.5h3.5V2.2h4v16.9h-4v-6.7h-3.5v6.7h-4V2.2z"/>
			<path class="st0" d="M113.6,2.1h4.3l4.6,17h-4.1l-0.7-3.1h-3.9l-0.7,3.1h-4L113.6,2.1z M116.9,12.8l-1.2-5.2l-1.2,5.2H116.9z"/>
			<path class="st0" d="M133.4,19.5l-1-1.3c-1,0.8-2.2,1.2-3.5,1.2c-3.8,0-6.4-3.1-6.4-8.4v-0.7c0-5.3,2.6-8.4,6.4-8.4
				c3.8,0,6.4,3.1,6.4,8.4V11c0,1.9-0.4,3.6-1,4.9l1.5,1.7L133.4,19.5z M129.9,15.6l-1.6-1.8l2.3-2l0.5,0.6c0-0.4,0.1-0.9,0.1-1.4
				v-0.6c0-3.5-1-4.9-2.4-4.9c-1.4,0-2.4,1.4-2.4,4.9V11c0,3.6,1,4.9,2.4,4.9C129.3,15.9,129.6,15.8,129.9,15.6z"/>
			<path class="st0" d="M136.8,13.2v-11h4v11.2c0,1.6,0.7,2.3,1.8,2.3c1.1,0,1.8-0.7,1.8-2.3V2.2h4v11c0,4.3-2.4,6.2-5.8,6.2
				C139.1,19.4,136.8,17.5,136.8,13.2z"/>
			<path class="st0" d="M150.1,2.2h9.4v3.6h-5.5v3h4.9v3.5h-4.9v3.1h5.6v3.6h-9.5V2.2z"/>
		</g>
		<g>
			<path class="st0" d="M0.7,43.2l1.8-3C3,40.7,3.4,41,4.1,41c0.8,0,1.4-0.6,1.4-1.8V27.6h4v11.8c0,1.8-0.5,3.1-1.4,4
				c-0.8,0.8-2,1.3-3.5,1.3C3,44.8,1.6,44.1,0.7,43.2z"/>
			<path class="st0" d="M10.9,36.5v-0.7c0-5.3,2.6-8.4,6.4-8.4c3.8,0,6.4,3.1,6.4,8.4v0.7c0,5.3-2.6,8.4-6.4,8.4
				C13.5,44.9,10.9,41.7,10.9,36.5z M19.7,36.4v-0.5c0-3.5-1-4.9-2.3-4.9S15,32.4,15,35.8v0.5c0,3.5,1,4.9,2.4,4.9
				C18.7,41.2,19.7,39.8,19.7,36.4z"/>
			<path class="st0" d="M25.2,38.7v-11h4v11.2c0,1.6,0.7,2.3,1.8,2.3c1.1,0,1.8-0.7,1.8-2.3V27.6h4v11c0,4.3-2.4,6.2-5.8,6.2
				C27.5,44.8,25.2,42.9,25.2,38.7z"/>
			<path class="st0" d="M38.5,27.6h5.1c2,0,3.6,0.5,4.6,1.6c0.9,0.9,1.4,2.2,1.4,4v0.2c0,2.4-1,3.9-2.5,4.7l2.9,6.4h-4.4l-2.3-5.4
				h-0.9v5.4h-4V27.6z M43.5,35.9c1.4,0,2.1-0.9,2.1-2.4v-0.1c0-1.6-0.8-2.3-2.2-2.3h-1v4.8H43.5z"/>
			<path class="st0" d="M55.4,27.6h4.5c4.8,0,7.4,3,7.4,8.1v0.6c0,5.1-2.6,8.2-7.4,8.2h-4.4V27.6z M59.4,31.2v9.7H60
				c2,0,3.3-1.3,3.3-4.6v-0.4c0-3.4-1.3-4.6-3.3-4.6H59.4z"/>
			<path class="st0" d="M71.8,27.6h4.3l4.6,17h-4.1l-0.7-3.1h-3.9l-0.7,3.1h-4L71.8,27.6z M75.1,38.2L73.9,33l-1.2,5.2H75.1z"/>
			<path class="st0" d="M81.6,27.6h3.8l4.1,8v-8h3.9v16.9h-3.6l-4.3-8.4v8.4h-3.9V27.6z"/>
			<path class="st0" d="M94.2,42.6l2-3.2c1,0.9,2.3,1.8,3.6,1.8c1,0,1.5-0.6,1.5-1.3c0-0.7-0.5-1.1-2-2c-2.7-1.4-4.4-2.7-4.4-5.3
				v-0.1c0-3,2.2-5,5.4-5c1.6,0,3.4,0.5,5,1.9l-2,3.1c-0.7-0.6-1.8-1.4-3-1.4c-0.8,0-1.4,0.5-1.4,1.1v0c0,0.7,0.5,1.1,2.4,2.2
				c2.4,1.3,4,2.7,4,5.2v0.1c0,3-2.3,5.1-5.4,5.1C97.9,44.8,96,44.2,94.2,42.6z"/>
		</g>
		<g>
			<path class="st0" d="M18.6,53h4.2l2.3,10.3L27.4,53h4.1l-4.4,17h-4L18.6,53z"/>
			<path class="st0" d="M31.5,61.8v-0.7c0-5.3,2.6-8.4,6.4-8.4c3.8,0,6.4,3.1,6.4,8.4v0.7c0,5.3-2.6,8.4-6.4,8.4
				C34,70.2,31.5,67.1,31.5,61.8z M40.2,61.7v-0.5c0-3.5-1-4.9-2.3-4.9c-1.4,0-2.3,1.4-2.3,4.9v0.5c0,3.5,1,4.9,2.4,4.9
				C39.3,66.6,40.2,65.2,40.2,61.7z"/>
			<path class="st0" d="M47.9,56.7h-3.2V53h10.4v3.7h-3.2v13.2h-4V56.7z"/>
			<path class="st0" d="M56.4,53h5.1c2,0,3.6,0.5,4.6,1.6c0.9,0.9,1.4,2.2,1.4,4v0.2c0,2.4-1,3.9-2.5,4.7l2.9,6.4h-4.4l-2.3-5.4
				h-0.9v5.4h-4V53z M61.4,61.3c1.4,0,2.1-0.9,2.1-2.4v-0.1c0-1.6-0.8-2.3-2.2-2.3h-1v4.8H61.4z"/>
			<path class="st0" d="M69,53h9.4v3.6H73v3h4.9v3.5H73v3.1h5.6v3.6H69V53z"/>
			<path class="st0" d="M84.5,53h4v16.9h-4V53z"/>
			<path class="st0" d="M90.4,53h3.8l4.1,8v-8h3.9v16.9h-3.6l-4.3-8.4v8.4h-3.9V53z"/>
			<path class="st0" d="M106.7,56.7h-3.2V53h10.4v3.7h-3.2v13.2h-4V56.7z"/>
			<path class="st0" d="M115.2,53h9.4v3.6h-5.5v3h4.9v3.5h-4.9v3.1h5.6v3.6h-9.5V53z M120.6,48.9l3.6,1.1l-2.9,2.1h-2.8L120.6,48.9z
				"/>
			<path class="st0" d="M126.4,53h5.1c2,0,3.6,0.5,4.6,1.6c0.9,0.9,1.4,2.2,1.4,4v0.2c0,2.4-1,3.9-2.5,4.7l2.9,6.4h-4.4l-2.3-5.4
				h-0.9v5.4h-4V53z M131.3,61.3c1.4,0,2.1-0.9,2.1-2.4v-0.1c0-1.6-0.8-2.3-2.2-2.3h-1v4.8H131.3z"/>
			<path class="st0" d="M139,53h9.4v3.6H143v3h4.9v3.5H143v3.1h5.6v3.6H139V53z M142.2,49.2h3.2l2.2,3h-2.5l-1.3-1.1l-1.3,1.1H140
				L142.2,49.2z"/>
			<path class="st0" d="M152.7,56.7h-3.2V53h10.4v3.7h-3.2v13.2h-4V56.7z"/>
		</g>
	</g>
	<g>
		<g>
			<path class="st0" d="M1.3,174.7h9.4v3.6H5.2v3h4.9v3.5H5.2v3.1h5.6v3.6H1.3V174.7z"/>
			<path class="st0" d="M15,178.4h-3.2v-3.7h10.4v3.7H19v13.2h-4V178.4z"/>
			<path class="st0" d="M27.4,183.5v-0.6c0-5.5,3-8.4,6.6-8.4c1.8,0,3.2,0.6,4.3,1.7l-2.1,3.2c-0.5-0.5-1.2-1.1-2.1-1.1
				c-1.5,0-2.7,1.5-2.7,4.8v0.1c0,3.5,1.4,4.8,2.7,4.8c1,0,1.7-0.6,2.3-1.2l2,3.1c-1.2,1.1-2.6,1.9-4.6,1.9
				C30.1,191.9,27.4,189,27.4,183.5z"/>
			<path class="st0" d="M39.6,174.7H49v3.6h-5.5v3h4.9v3.5h-4.9v3.1h5.6v3.6h-9.5V174.7z"/>
			<path class="st0" d="M50.7,174.7h4v13.2h4.9v3.7h-8.9V174.7z"/>
			<path class="st0" d="M60.4,185.7v-11h4v11.2c0,1.6,0.7,2.3,1.8,2.3c1.1,0,1.8-0.7,1.8-2.3v-11.2h4v11c0,4.3-2.4,6.2-5.8,6.2
				C62.8,191.9,60.4,190,60.4,185.7z"/>
			<path class="st0" d="M73.8,174.7h4v16.9h-4V174.7z"/>
			<path class="st0" d="M84,174.7h4.5c4.8,0,7.4,3,7.4,8.1v0.6c0,5.1-2.6,8.2-7.4,8.2H84V174.7z M88,178.3v9.7h0.6
				c2,0,3.3-1.3,3.3-4.6v-0.4c0-3.4-1.3-4.6-3.3-4.6H88z"/>
			<path class="st0" d="M97.5,174.7h9.4v3.6h-5.5v3h4.9v3.5h-4.9v3.1h5.6v3.6h-9.5V174.7z"/>
		</g>
		<g>
			<path class="st0" d="M56.6,200.3h4v13.2h4.9v3.7h-8.9V200.3z"/>
			<path class="st0" d="M70.4,200.2h4.3l4.6,17h-4.1l-0.7-3.1h-3.9l-0.7,3.1h-4L70.4,200.2z M73.7,210.8l-1.2-5.2l-1.2,5.2H73.7z"/>
			<path class="st0" d="M83.3,215.2l2-3.2c1,0.9,2.3,1.8,3.6,1.8c1,0,1.5-0.6,1.5-1.3c0-0.7-0.5-1.1-2-2c-2.7-1.4-4.4-2.7-4.4-5.3
				v-0.1c0-3,2.2-5,5.4-5c1.6,0,3.4,0.5,5,1.9l-2,3.1c-0.7-0.6-1.8-1.4-3-1.4c-0.8,0-1.4,0.5-1.4,1.1v0c0,0.7,0.5,1.1,2.4,2.2
				c2.4,1.3,4,2.7,4,5.2v0.1c0,3-2.3,5.1-5.4,5.1C87.1,217.4,85.1,216.8,83.3,215.2z"/>
			<path class="st0" d="M95.4,209.1v-0.7c0-5.3,2.6-8.4,6.4-8.4c3.8,0,6.4,3.1,6.4,8.4v0.7c0,5.3-2.6,8.4-6.4,8.4
				C97.9,217.5,95.4,214.4,95.4,209.1z M104.1,209v-0.5c0-3.5-1-4.9-2.3-4.9c-1.4,0-2.3,1.4-2.3,4.9v0.5c0,3.5,1,4.9,2.4,4.9
				C103.1,213.9,104.1,212.4,104.1,209z"/>
			<path class="st0" d="M109.4,209v-0.6c0-5.5,3-8.4,6.6-8.4c1.8,0,3.2,0.6,4.3,1.7l-2.1,3.2c-0.5-0.5-1.2-1.1-2.1-1.1
				c-1.5,0-2.7,1.5-2.7,4.8v0.1c0,3.5,1.4,4.8,2.7,4.8c1,0,1.7-0.6,2.3-1.2l2,3.1c-1.2,1.1-2.6,1.9-4.6,1.9
				C112.1,217.4,109.4,214.5,109.4,209z"/>
			<path class="st0" d="M121.6,200.3h4v16.9h-4V200.3z"/>
			<path class="st0" d="M127.6,200.3h9.4v3.6h-5.5v3h4.9v3.5h-4.9v3.1h5.6v3.6h-9.5V200.3z M132.9,196.2l3.6,1.1l-2.9,2.1h-2.8
				L132.9,196.2z"/>
			<path class="st0" d="M141.3,203.9h-3.2v-3.7h10.4v3.7h-3.2v13.2h-4V203.9z"/>
			<path class="st0" d="M149.8,200.3h9.4v3.6h-5.5v3h4.9v3.5h-4.9v3.1h5.6v3.6h-9.5V200.3z M155.1,196.2l3.6,1.1l-2.9,2.1h-2.8
				L155.1,196.2z"/>
		</g>
	</g>
	<g>
		<rect x="28.4" y="148.7" class="st0" width="103.3" height="8.9"/>
		<path class="st0" d="M139.2,80.8L139.2,80.8l-4.2,2.2l-14.7,7.7c0,0-5.1,2.7-8.3,3.4l0,0l0,0c0.9,2.8,1.8,4.6,2.6,6
			c0.3,0.4,0.6,0.7,1,1c0.5,0.3,1.2,0.5,1.8,0.5c0.6,0,1.3-0.1,1.9-0.4l19.7-10.6L139.2,80.8L139.2,80.8z"/>
		<path class="st0" d="M109,135.2l1.9,4.7c0.9,2.4,3.2,2.6,5.5,2.6l5.4,0l7,0l-9.5-19.4l-12.6,6.2C106.9,130.1,109,135.2,109,135.2z
			"/>
		<path class="st0" d="M113.8,109.8L113.8,109.8l-11.3-23.1H86.9l-20.1,37.9l-1.3,2.6c6.9-1,16.9-2.7,19.9-8.8l9-19.2l6.9,17.4
			l0,0.1c0,0,0,0,0,0L113.8,109.8z"/>
		<path class="st0" d="M113.9,109.8L113.9,109.8l-12.5,6.9c0,0,0,0,0,0c-15.6,8.5-35.9,16.7-53.5,15.3c-7.4-0.6-11.9-3.4-11.5-8.2
			c0.5-5.4,5.2-11.1,13.4-16.8c6.3-4.4,11.8-6.7,14.7-7.7c3.8-1.3,7-1.9,10.5-2.1c0.8,0,1.6,0.1,2.2,0.2c0-0.1,0-0.2-0.1-0.3
			c0,0,0,0,0,0c-1.6-10.1-4.2-11.5-8.4-11.3c-11.6,0.4-26.3,8.4-34,17.7c-4.2,5-6.3,11-6.4,15.3c-0.2,6.5,2.5,15.5,10.4,20
			c8.9,5.1,21.6,4.7,33.2,2.1c12.4-2.8,23.2-8.2,33.9-13.5c0,0,0,0,0,0l12.9-6.7l0,0l20.5-11.7l0.1-12.8L113.9,109.8z"/>
	</g>
</g>
</svg>
